<?xml version="1.0" standalone="no"?><!DOCTYPE svg PUBLIC "-//W3C//DTD SVG 1.1//EN" "http://www.w3.org/Graphics/SVG/1.1/DTD/svg11.dtd"><svg t="1667810435987" class="icon" viewBox="0 0 1024 1024" version="1.1" xmlns="http://www.w3.org/2000/svg" p-id="8118" xmlns:xlink="http://www.w3.org/1999/xlink" width="200" height="200"><path d="M83.626667 271.36V737.28c0 72.021333 58.368 130.389333 130.389333 130.389333h595.968c72.021333 0 130.389333-58.368 130.389333-130.389333v-321.877333c0-48.810667-39.594667-88.405333-88.405333-88.405334h-253.610667c-33.792 0-64.853333-19.456-79.530666-50.176L477.866667 191.146667c-14.677333-30.72-45.738667-50.176-79.530667-50.176h-184.32c-72.021333 0-130.389333 58.368-130.389333 130.389333z" fill="#06CC76" opacity=".6" p-id="8119"></path><path d="M895.658667 271.018667c0-47.104-38.570667-85.333333-85.333334-85.333334H552.96c-12.970667 0-21.845333 13.653333-16.042667 25.6l29.354667 61.098667c3.072 6.144 9.216 10.24 16.042667 10.24h302.08c6.144-0.341333 11.264-5.461333 11.264-11.605333z" fill="#06CC76" opacity=".6" p-id="8120"></path><path d="M895.658667 271.018667c0-47.104-38.570667-85.333333-85.333334-85.333334H552.96c-12.970667 0-21.845333 13.653333-16.042667 25.6l29.354667 61.098667c3.072 6.144 9.216 10.24 16.042667 10.24h302.08c6.144-0.341333 11.264-5.461333 11.264-11.605333z" fill="#06CC76" opacity=".6" p-id="8121"></path><path d="M203.434667 796.330667h605.184c23.210667 0 41.984-18.773333 41.984-41.984 0-23.210667-18.773333-41.984-41.984-41.984H203.434667c-23.210667 0-41.984 18.773333-41.984 41.984-0.341333 23.210667 18.773333 41.984 41.984 41.984z" fill="#FFFFFF" p-id="8122"></path></svg>