<?xml version="1.0" standalone="no"?><!DOCTYPE svg PUBLIC "-//W3C//DTD SVG 1.1//EN" "http://www.w3.org/Graphics/SVG/1.1/DTD/svg11.dtd"><svg t="1668150554070" class="icon" viewBox="0 0 1024 1024" version="1.1" xmlns="http://www.w3.org/2000/svg" p-id="11623" xmlns:xlink="http://www.w3.org/1999/xlink" width="200" height="200"><path d="M877.248 260.8a96 96 0 0 1 50.432 84.512V678.72a96 96 0 0 1-50.432 84.48l-319.68 172.288a96 96 0 0 1-91.104 0l-319.68-172.256a96 96 0 0 1-50.464-84.512V345.28a96 96 0 0 1 50.432-84.48l319.68-172.288a96 96 0 0 1 91.104 0l319.68 172.256z" fill="#FFC2C2" p-id="11624"></path><path d="M877.248 260.8a96 96 0 0 1 50.432 84.512V678.72a96 96 0 0 1-50.432 84.48l-319.68 172.288a96 96 0 0 1-91.104 0l-319.68-172.256a96 96 0 0 1-50.464-84.512V345.28a96 96 0 0 1 50.432-84.48l319.68-172.288a96 96 0 0 1 91.104 0l319.68 172.256z m-30.4 56.32l-319.68-172.224q-15.168-8.192-30.336 0L177.152 317.12q-16.832 9.056-16.832 28.16V678.72q0 19.104 16.8 28.16l319.68 172.288q15.2 8.16 30.4 0l319.68-172.288q16.8-9.056 16.8-28.16V345.28q0-19.104-16.8-28.16z" fill="#FFC2C2" p-id="11625"></path><path d="M918.176 303.648a96 96 0 0 0-40.96-42.848l-319.68-172.256a96 96 0 0 0-91.072 0L146.784 260.8A96 96 0 0 0 105.92 303.456l362.016 217.952a90.88 90.88 0 0 0 94.72-0.32l355.52-217.44z" fill="#FFD9D9" p-id="11626"></path><path d="M244.704 345.408L512 476.352l267.296-130.944a32 32 0 1 1 28.16 57.472L544 531.968v272.96a32 32 0 1 1-64 0v-272.96L216.544 402.88a32 32 0 1 1 28.16-57.472" fill="#FF8686" p-id="11627"></path></svg>